HIERARCHY
ROOT mug1
{
	OFFSET 0.000000 0.000000 0.000000
	CHANNELS 6 Xposition Yposition Zposition Yrotation Xrotation Zrotation
	End Site
	{
		OFFSET 0.000000 0.000000 0.000000
	}
}
MOTION
Frames: 67
Frame Time: 0.008333334
1.666069 5.169412 3.544712 -64.022710 -4.389435 10.650690 
1.661027 5.202406 3.551280 -64.109130 -3.492004 10.047650 
1.655984 5.235401 3.557849 -64.205050 -2.594299 9.442939 
1.650942 5.268395 3.564419 -64.310520 -1.696594 8.836364 
1.645900 5.301390 3.570987 -64.425570 -0.799164 8.227735 
1.640858 5.334384 3.577556 -64.550230 0.097738 7.616861 
1.635815 5.367379 3.584125 -64.684570 0.993820 7.003556 
1.630773 5.400373 3.590694 -64.828610 1.888816 6.387630 
1.625731 5.433367 3.597263 -64.982420 2.782454 5.768887 
1.620689 5.466362 3.603832 -65.146000 3.674457 5.147143 
1.615646 5.499356 3.610401 -65.319490 4.564549 4.522209 
1.610604 5.532351 3.616970 -65.502900 5.452453 3.893891 
1.605562 5.565345 3.623539 -65.696290 6.337891 3.262002 
1.600520 5.598340 3.630108 -65.899750 7.220582 2.626350 
1.595477 5.631334 3.636677 -66.113310 8.100249 1.986745 
1.590435 5.664328 3.643246 -66.337070 8.976618 1.342998 
1.585393 5.697323 3.649815 -66.571080 9.849402 0.694919 
1.580351 5.730317 3.656384 -66.815430 10.718330 0.042321 
1.573269 5.766382 3.668646 -67.080750 11.753220 -0.942017 
1.566814 5.802668 3.681767 -67.300380 12.621700 -1.868652 
1.559846 5.838288 3.695253 -67.642760 13.421770 -2.852783 
1.552991 5.874031 3.709407 -68.021790 14.172920 -3.835785 
1.545230 5.908775 3.724626 -68.507660 15.024680 -5.025818 
1.537866 5.944522 3.740999 -68.848630 15.934740 -6.220306 
1.530129 5.979739 3.758506 -69.270870 16.803000 -7.486877 
1.522229 6.014878 3.777099 -69.644590 17.649280 -8.806824 
1.513368 6.050325 3.795926 -70.138340 18.376720 -10.031950 
1.504850 6.084874 3.814716 -70.661410 19.312600 -11.435330 
1.495865 6.119843 3.835507 -71.030490 20.204040 -12.717100 
1.487096 6.154282 3.855367 -71.393460 21.123820 -14.052340 
1.477569 6.188459 3.877002 -71.753850 22.008170 -15.317080 
1.468511 6.221414 3.899310 -72.064760 23.005230 -16.684750 
1.458251 6.253987 3.922386 -72.425840 23.748920 -17.861300 
1.449525 6.285589 3.946067 -72.834840 24.557470 -19.143340 
1.440791 6.315472 3.970838 -73.207980 25.249530 -20.543850 
1.432011 6.344825 3.997185 -73.744540 25.817880 -21.851010 
1.424368 6.372572 4.024326 -74.317690 26.382010 -23.381410 
1.416094 6.399459 4.053030 -74.921600 26.852760 -24.901640 
1.408615 6.424716 4.083753 -75.576870 27.370110 -26.544530 
1.400040 6.448996 4.113002 -76.316100 27.867350 -28.294560 
1.391678 6.472673 4.143805 -76.986020 28.410740 -29.939940 
1.383676 6.495233 4.175101 -77.636960 28.752840 -31.571290 
1.376921 6.516067 4.205443 -78.309110 29.308110 -33.283840 
1.369207 6.535031 4.236522 -78.972720 29.574450 -34.915890 
1.361493 6.553997 4.267601 -79.646480 29.824180 -36.555630 
1.355448 6.570558 4.297723 -80.290470 30.168090 -38.279850 
1.349409 6.586692 4.328819 -80.870300 30.449420 -39.867550 
1.343329 6.600888 4.359490 -81.673520 30.787590 -41.667180 
1.337140 6.614460 4.390062 -82.353330 30.957060 -43.219540 
1.332277 6.627200 4.419006 -83.099300 31.252280 -44.973080 
1.326396 6.640470 4.445295 -83.991520 31.618520 -46.755830 
1.319849 6.652483 4.473907 -84.684270 31.633150 -48.076350 
1.314010 6.663556 4.500688 -85.360660 31.698940 -49.450650 
1.307836 6.673173 4.527589 -85.980530 31.626890 -50.694950 
1.301844 6.682526 4.555240 -86.549010 31.550010 -51.891480 
1.296685 6.689711 4.581601 -87.273590 31.529820 -53.304750 
1.290670 6.696205 4.607916 -87.975740 31.421800 -54.528870 
1.284206 6.703603 4.634093 -88.400790 31.291860 -55.323610 
1.279312 6.710268 4.657339 -89.036500 31.466530 -56.312620 
1.273665 6.717294 4.679327 -89.403870 31.446910 -56.828130 
1.268833 6.724197 4.700213 -89.506070 31.388920 -57.003720 
1.263258 6.730696 4.719126 -89.803130 31.221480 -57.274570 
1.259154 6.735195 4.738903 -90.115420 30.988680 -57.620060 
1.255524 6.739009 4.758939 -90.345950 30.817410 -58.009340 
1.250788 6.741672 4.778945 -90.918090 30.673400 -58.555300 
1.247051 6.744361 4.796576 -91.343320 30.611430 -58.931300 
1.243585 6.746796 4.812197 -91.724610 30.560680 -59.169070 
